<?xml version="1.0" standalone="no"?><!DOCTYPE svg PUBLIC "-//W3C//DTD SVG 1.1//EN" "http://www.w3.org/Graphics/SVG/1.1/DTD/svg11.dtd"><svg t="1691373910571" class="icon" viewBox="0 0 1312 1024" version="1.1" xmlns="http://www.w3.org/2000/svg" p-id="10131" xmlns:xlink="http://www.w3.org/1999/xlink" width="61.5" height="48"><path d="M669.44 28.64c-318.048 0-640 65.952-640 192 0 441.12 287.104 800 640 800s640-358.88 640-800c0-126.048-321.984-192-640-192" fill="#EEAF4B" p-id="10132"></path><path d="M669.44 412.64c-213.952 0-576-33.696-576-160a32 32 0 1 1 64 0c6.048 32.48 192.288 96 512 96s505.92-63.52 512-96.16a31.936 31.936 0 0 1 32-31.904c17.696 0 32 14.4 32 32.064 0 126.304-362.08 160-576 160" fill="#FCDFAC" p-id="10133"></path></svg>