<?xml version="1.0" standalone="no"?><!DOCTYPE svg PUBLIC "-//W3C//DTD SVG 1.1//EN" "http://www.w3.org/Graphics/SVG/1.1/DTD/svg11.dtd"><svg t="1691135600281" class="icon" viewBox="0 0 1024 1024" version="1.1" xmlns="http://www.w3.org/2000/svg" p-id="6169" xmlns:xlink="http://www.w3.org/1999/xlink" width="48" height="48"><path d="M34.133333 768c-10.24 0-17.066667-6.826667-17.066666-17.066667 0-238.933333 95.573333-327.68 160.426666-385.706666 10.24-6.826667 17.066667-13.653333 23.893334-23.893334 58.026667-58.026667 204.8-228.693333 225.28-314.026666 0-6.826667 6.826667-10.24 13.653333-13.653334 6.826667 0 13.653333 0 17.066667 3.413334 27.306667 27.306667 30.72 85.333333 34.133333 153.6 0 20.48 3.413333 40.96 3.413333 61.44 0 10.24-6.826667 17.066667-13.653333 17.066666-10.24 0-17.066667-6.826667-17.066667-13.653333-3.413333-20.48-3.413333-40.96-3.413333-61.44-3.413333-37.546667-3.413333-75.093333-10.24-102.4-47.786667 98.986667-174.08 245.76-218.453333 290.133333-6.826667 6.826667-17.066667 13.653333-23.893334 23.893334C136.533333 447.146667 51.2 525.653333 51.2 750.933333c0 10.24-6.826667 17.066667-17.066667 17.066667z" fill="#8a8a8a" p-id="6170"></path><path d="M170.666667 989.866667h-6.826667C68.266667 955.733333 17.066667 843.093333 17.066667 750.933333c0-116.053333 170.666667-273.066667 354.986666-436.906666 27.306667-27.306667 58.026667-51.2 85.333334-78.506667C614.4 92.16 829.44 34.133333 890.88 20.48c6.826667 0 13.653333-3.413333 20.48-3.413333 51.2 0 95.573333 40.96 95.573333 95.573333 0 6.826667 0 13.653333-3.413333 20.48-13.653333 58.026667-75.093333 238.933333-208.213333 392.533333-6.826667 6.826667-17.066667 6.826667-23.893334 3.413334-6.826667-6.826667-6.826667-17.066667-3.413333-23.893334 150.186667-174.08 197.973333-375.466667 197.973333-375.466666v-13.653334c0-34.133333-27.306667-61.44-61.44-61.44h-13.653333c-51.2 13.653333-259.413333 68.266667-409.6 204.8-27.306667 27.306667-58.026667 51.2-85.333333 78.506667C225.28 491.52 51.2 648.533333 51.2 750.933333c0 92.16 54.613333 180.906667 126.293333 204.8 10.24 3.413333 13.653333 13.653333 10.24 20.48-3.413333 10.24-10.24 13.653333-17.066666 13.653334z" fill="#8a8a8a" p-id="6171"></path><path d="M256 1006.933333c-136.533333 0-201.386667-122.88-201.386667-129.706666-3.413333-6.826667-3.413333-13.653333 3.413334-20.48C344.746667 570.026667 614.4 494.933333 716.8 494.933333c98.986667 0 242.346667 30.72 286.72 71.68 3.413333 3.413333 6.826667 10.24 3.413333 17.066667 0 6.826667-6.826667 10.24-13.653333 13.653333-81.92 20.48-259.413333 157.013333-320.853333 218.453334l-23.893334 23.893333c-58.026667 64.853333-153.6 167.253333-392.533333 167.253333z m-167.253333-133.12c17.066667 27.306667 75.093333 98.986667 167.253333 98.986667 225.28 0 314.026667-95.573333 368.64-157.013333 6.826667-10.24 17.066667-17.066667 23.893333-23.893334 51.2-51.2 204.8-170.666667 303.786667-215.04-51.2-23.893333-153.6-47.786667-235.52-47.786666-95.573333 0-351.573333 71.68-628.053333 344.746666z" fill="#8a8a8a" p-id="6172"></path><path d="M170.666667 682.666667m-17.066667 0a17.066667 17.066667 0 1 0 34.133333 0 17.066667 17.066667 0 1 0-34.133333 0Z" fill="#8a8a8a" p-id="6173"></path><path d="M307.2 546.133333m-17.066667 0a17.066667 17.066667 0 1 0 34.133334 0 17.066667 17.066667 0 1 0-34.133334 0Z" fill="#8a8a8a" p-id="6174"></path><path d="M409.6 409.6m-17.066667 0a17.066667 17.066667 0 1 0 34.133334 0 17.066667 17.066667 0 1 0-34.133334 0Z" fill="#8a8a8a" p-id="6175"></path><path d="M546.133333 409.6m-17.066666 0a17.066667 17.066667 0 1 0 34.133333 0 17.066667 17.066667 0 1 0-34.133333 0Z" fill="#8a8a8a" p-id="6176"></path><path d="M716.8 443.733333m-17.066667 0a17.066667 17.066667 0 1 0 34.133334 0 17.066667 17.066667 0 1 0-34.133334 0Z" fill="#8a8a8a" p-id="6177"></path><path d="M682.666667 341.333333m-17.066667 0a17.066667 17.066667 0 1 0 34.133333 0 17.066667 17.066667 0 1 0-34.133333 0Z" fill="#8a8a8a" p-id="6178"></path><path d="M546.133333 307.2m-17.066666 0a17.066667 17.066667 0 1 0 34.133333 0 17.066667 17.066667 0 1 0-34.133333 0Z" fill="#8a8a8a" p-id="6179"></path><path d="M682.666667 204.8m-17.066667 0a17.066667 17.066667 0 1 0 34.133333 0 17.066667 17.066667 0 1 0-34.133333 0Z" fill="#8a8a8a" p-id="6180"></path><path d="M819.2 273.066667m-17.066667 0a17.066667 17.066667 0 1 0 34.133334 0 17.066667 17.066667 0 1 0-34.133334 0Z" fill="#8a8a8a" p-id="6181"></path><path d="M853.333333 170.666667m-17.066666 0a17.066667 17.066667 0 1 0 34.133333 0 17.066667 17.066667 0 1 0-34.133333 0Z" fill="#8a8a8a" p-id="6182"></path></svg>