<?xml version="1.0" standalone="no"?><!DOCTYPE svg PUBLIC "-//W3C//DTD SVG 1.1//EN" "http://www.w3.org/Graphics/SVG/1.1/DTD/svg11.dtd"><svg t="1691136163874" class="icon" viewBox="0 0 1024 1024" version="1.1" xmlns="http://www.w3.org/2000/svg" p-id="6416" xmlns:xlink="http://www.w3.org/1999/xlink" width="48" height="48"><path d="M341.333333 298.666667h341.333334a170.666667 170.666667 0 1 0-341.333334 0zM298.666667 298.666667a213.333333 213.333333 0 1 1 426.666666 0l72.448 543.402666A85.333333 85.333333 0 0 1 713.216 938.666667H310.784a85.333333 85.333333 0 0 1-84.565333-96.597334L298.666667 298.666667z m128.042666 168.661333a21.333333 21.333333 0 0 1 42.581334 3.285333l-22.997334 298.666667a21.333333 21.333333 0 1 1-42.538666-3.285333l22.954666-298.666667zM336.042667 341.333333L268.501333 847.701333A42.666667 42.666667 0 0 0 310.784 896h402.432a42.666667 42.666667 0 0 0 42.24-48.298667L688 341.333333H336.042667zM554.666667 470.869333a21.333333 21.333333 0 1 1 42.581333-3.072l21.333333 298.666667a21.333333 21.333333 0 1 1-42.581333 3.072l-21.333333-298.666667zM512 213.333333a21.333333 21.333333 0 1 1 0-42.666666 21.333333 21.333333 0 0 1 0 42.666666z m-85.333333 42.666667a21.333333 21.333333 0 1 1 0-42.666667 21.333333 21.333333 0 0 1 0 42.666667z m170.666666 0a21.333333 21.333333 0 1 1 0-42.666667 21.333333 21.333333 0 0 1 0 42.666667z" p-id="6417" fill="#8a8a8a"></path></svg>